<svg width="10" height="8" viewBox="0 0 10 8" fill="none" xmlns="http://www.w3.org/2000/svg">
<path fill-rule="evenodd" clip-rule="evenodd" d="M6.63128 7.42428C6.63128 7.74186 6.37548 7.99995 6.06073 7.99995H4.76842C2.96451 7.99995 1.49913 6.53103 1.47251 4.71766L0.973273 5.22137C0.749805 5.44588 0.390355 5.44588 0.166887 5.22137C-0.0556292 4.99782 -0.0556292 4.63227 0.166887 4.40775L1.63512 2.92731C1.85763 2.70184 2.21803 2.70184 2.4415 2.92731L3.90973 4.40775C4.13225 4.63227 4.13225 4.99782 3.90973 5.22137C3.79847 5.33363 3.65203 5.39023 3.50654 5.39023C3.36105 5.39023 3.2146 5.33363 3.10335 5.22137L2.61457 4.72821C2.64595 5.90162 3.59783 6.84861 4.76842 6.84861H6.06073C6.37548 6.84861 6.63128 7.1067 6.63128 7.42428Z" fill="#C4C4C4"/>
<path fill-rule="evenodd" clip-rule="evenodd" d="M9.83263 2.77764C10.0561 3.00216 10.0561 3.36675 9.83263 3.59127L8.36439 5.07268C8.25313 5.18494 8.10763 5.24154 7.96119 5.24154C7.81569 5.24154 7.6702 5.18494 7.55894 5.07268L6.0907 3.59127C5.86723 3.36675 5.86723 3.00216 6.0907 2.77764C6.31322 2.55313 6.67362 2.55313 6.89614 2.77764L7.38492 3.27081C7.35354 2.09739 6.40165 1.1504 5.23105 1.1504H3.93873C3.62397 1.1504 3.36816 0.8923 3.36816 0.574718C3.36816 0.257136 3.62397 0 3.93873 0H5.23105C7.03498 0 8.50037 1.46798 8.527 3.28232L9.02719 2.77764C9.24971 2.55313 9.61011 2.55313 9.83263 2.77764Z" fill="#C4C4C4"/>
</svg>
